<svg xmlns="http://www.w3.org/2000/svg" width="39" height="36" fill="none" viewBox="0 0 39 36"><path stroke="#bd0e0e" stroke-linecap="round" stroke-linejoin="round" stroke-width="1.5" d="M13.406 13.5V7.875c0-.895.385-1.754 1.071-2.386a3.82 3.82 0 0 1 2.585-.989h9.75c.97 0 1.9.356 2.586.989a3.24 3.24 0 0 1 1.07 2.386v20.25c0 .895-.384 1.753-1.07 2.387a3.82 3.82 0 0 1-2.585.988h-9.75c-.97 0-1.9-.356-2.586-.988-.686-.634-1.07-1.492-1.07-2.387V22.5m-4.876 0L3.656 18m0 0 4.875-4.5M3.656 18h20.719"/></svg>
